<?xml version="1.0" encoding="UTF-8"?>
<svg id="Layer_2" data-name="Layer 2" xmlns="http://www.w3.org/2000/svg" viewBox="0 0 368.83 389.28">
  <g id="conteúdo">
    <g>
      <path d="M206.85,168.86c5.65-3.06,74.28-43.82,130.85-77.47l4.06-2.41c2.76-1.69,3.66-5.31,2.03-8.04-1.58-2.69-5.46-3.6-8-2.12,0,.01-1.15.69-3.22,1.91-79.32,47.19-127.19,75.53-131.34,77.76-7.82,4.26-19.75,3.82-28.05-.97-1.31-.76-126.69-72.29-141.87-80.04l.14-.24c-2.7-1.53-6.41-.54-8.02,2.22-.78,1.38-.97,2.99-.54,4.5.44,1.51,1.43,2.76,2.62,3.42q.11.07,13.1,7.42c32.39,18.31,118.4,66.94,128.7,72.92,6.34,3.63,13.68,5.55,21.2,5.55,6.64,0,12.98-1.52,18.34-4.42Z" style="fill: #fff; stroke-width: 0px;"/>
      <path d="M186.58,179.21c-3.24,0-5.89,2.63-5.89,5.87v178.47c0,3.25,2.65,5.89,5.89,5.89s5.89-2.64,5.89-5.89v-178.47c0-3.23-2.65-5.87-5.89-5.87Z" style="fill: #fff; stroke-width: 0px;"/>
      <path d="M366.95,73.67c-5.55-15.23-19.18-19.62-32.36-23.87-2.87-.93-5.8-1.87-8.69-2.95-21.65-7.85-58.43-20.78-88-31.18-12.5-4.4-23.9-8.41-32.68-11.51l-3.1-1.1-.03.07c-14.13-4.26-31.61-4.21-42.87.29-30.42,12.17-64.61,24.71-97.69,36.84l-17.98,6.61c-2.17.81-4.45,1.61-6.79,2.42-13.19,4.57-29.62,10.26-34.93,25.2-1.23,3.79-1.83,8.18-1.83,13.42,0,7.67,1.23,16.02,2.4,24.08.7,4.76,1.35,9.25,1.74,13.43,3.05,32.37,5.96,61.23,9.73,96.52.46,4.3.75,9.16,1.06,14.29.77,12.78,1.57,26.01,5.21,34.69,3.23,7.23,9.7,11.55,15.41,15.35,1.6,1.07,3.16,2.11,4.62,3.21,27.16,19.83,52.25,38.58,78.81,58.44,12.07,9.03,24.33,18.2,37.06,27.65,1.38,1.02,2.7,2.04,4,3.04,7.08,5.47,13.77,10.64,25.06,10.65h0c1.53,0,3.16-.09,4.91-.3,8.17-1.06,14.95-6.32,20.92-10.95,1.1-.85,2.18-1.69,3.26-2.5,36.58-27.64,72.28-54.21,115.15-86.08l.52-.38c7.59-5.68,15.42-11.54,18.91-19.58,2.29-5.63,2.74-12.36,3.15-18.86.14-2.1.27-4.15.47-6.12,3.74-38.47,7.28-74.82,12.31-120.3.4-3.58.96-7.47,1.55-11.47,1.27-8.72,2.57-17.73,2.58-25.81,0-5.5-.61-9.7-1.89-13.26ZM167.18,369.28c-1.3-1-2.66-2.06-4.15-3.16-12.87-9.57-25.28-18.86-37.53-28-26.41-19.74-51.35-38.39-78.4-58.15-1.41-1.02-2.87-1.99-4.31-2.97-5.07-3.42-10.32-6.96-11.85-10.78-2.73-6.17-3.55-19.4-4.29-31.07-.32-5.05-.62-10-1.07-14.44-4.08-38.39-6.89-66.31-9.71-96.38-.43-4.58-1.15-9.5-1.85-14.25-1.11-7.65-2.27-15.57-2.26-22.18,0-3.87.43-7.24,1.25-9.79,2.84-9.19,17.44-14.24,30.31-18.69l21.55-7.83c33.36-12.25,67.86-24.91,98.71-37.23,4.26-1.72,10.06-2.66,16.34-2.66,7.3,0,14.88,1.26,21.34,3.54,8.66,3.07,19.88,7.01,32.18,11.33,29.73,10.46,66.73,23.47,88.46,31.34,2.91,1.04,5.75,1.97,8.46,2.86,12.92,4.24,22.27,7.3,25.52,16.85.79,2.2,1.2,5.41,1.2,9.29,0,7.02-1.25,15.65-2.47,24-.61,4.14-1.2,8.2-1.62,11.99-4.78,43.25-8.12,77.2-12.3,120.46-.18,1.99-.34,4.06-.47,6.11-.42,5.91-.84,12.02-2.37,15.52-1.79,4.49-8.84,10.09-15.52,14.98-38.99,28.96-77.16,57.35-115.26,86.16l-1.99,1.55c-5.78,4.47-11.75,9.1-16.46,9.58-9.72,1.07-13.77-2.1-21.44-8.01Z" style="fill: #fff; stroke-width: 0px;"/>
    </g>
  </g>
</svg>